<svg width="1512" height="386" viewBox="0 0 1512 386" fill="none" xmlns="http://www.w3.org/2000/svg">
<rect x="-0.0429688" y="0.939697" width="1512" height="384.695" fill="#006AA8"/>
<path d="M39.9395 6.38806V385.635" stroke="#7A9DCD" stroke-opacity="0.4" stroke-width="2"/>
<path d="M101.254 6.38806V385.635" stroke="#7A9DCD" stroke-opacity="0.4" stroke-width="2"/>
<path d="M162.566 6.38806V385.635" stroke="#7A9DCD" stroke-opacity="0.4" stroke-width="2"/>
<path d="M223.879 6.38806V385.635" stroke="#7A9DCD" stroke-opacity="0.4" stroke-width="2"/>
<path d="M285.193 6.38806V385.635" stroke="#7A9DCD" stroke-opacity="0.4" stroke-width="2"/>
<path d="M346.508 6.38806V385.635" stroke="#7A9DCD" stroke-opacity="0.4" stroke-width="2"/>
<path d="M407.82 6.38806V385.635" stroke="#7A9DCD" stroke-opacity="0.4" stroke-width="2"/>
<path d="M469.133 6.38806V385.635" stroke="#7A9DCD" stroke-opacity="0.4" stroke-width="2"/>
<path d="M530.447 6.38806V385.635" stroke="#7A9DCD" stroke-opacity="0.4" stroke-width="2"/>
<path d="M591.76 6.38806V385.635" stroke="#7A9DCD" stroke-opacity="0.4" stroke-width="2"/>
<path d="M653.072 6.38806V385.635" stroke="#7A9DCD" stroke-opacity="0.4" stroke-width="2"/>
<path d="M714.385 6.38806V385.635" stroke="#7A9DCD" stroke-opacity="0.4" stroke-width="2"/>
<path d="M775.697 6.38806V385.635" stroke="#7A9DCD" stroke-opacity="0.4" stroke-width="2"/>
<path d="M837.01 6.38806V385.635" stroke="#7A9DCD" stroke-opacity="0.4" stroke-width="2"/>
<path d="M898.322 6.38806V385.635" stroke="#7A9DCD" stroke-opacity="0.4" stroke-width="2"/>
<path d="M959.635 6.38806V385.635" stroke="#7A9DCD" stroke-opacity="0.4" stroke-width="2"/>
<path d="M1020.95 6.38806V385.635" stroke="#7A9DCD" stroke-opacity="0.4" stroke-width="2"/>
<path d="M1082.26 6.38806V385.635" stroke="#7A9DCD" stroke-opacity="0.4" stroke-width="2"/>
<path d="M1143.57 6.38806V385.635" stroke="#7A9DCD" stroke-opacity="0.4" stroke-width="2"/>
<path d="M1204.88 6.38806V385.635" stroke="#7A9DCD" stroke-opacity="0.4" stroke-width="2"/>
<path d="M1266.2 6.38806V385.635" stroke="#7A9DCD" stroke-opacity="0.4" stroke-width="2"/>
<path d="M1327.51 6.38806V385.635" stroke="#7A9DCD" stroke-opacity="0.4" stroke-width="2"/>
<path d="M1388.82 6.38806V385.635" stroke="#7A9DCD" stroke-opacity="0.4" stroke-width="2"/>
<path d="M1450.13 6.38806V385.635" stroke="#7A9DCD" stroke-opacity="0.4" stroke-width="2"/>
<path d="M1512.04 6.38806V385.635" stroke="#7A9DCD" stroke-opacity="0.4" stroke-width="2"/>
<path d="M0.132812 51.8535H1511.73" stroke="#7A9DCD" stroke-opacity="0.4" stroke-width="2"/>
<path d="M0.132812 84.5959H1511.73" stroke="#7A9DCD" stroke-opacity="0.4" stroke-width="2"/>
<path d="M0.132812 117.339H1511.73" stroke="#7A9DCD" stroke-opacity="0.4" stroke-width="2"/>
<path d="M0.132812 150.081H1511.73" stroke="#7A9DCD" stroke-opacity="0.4" stroke-width="2"/>
<path d="M0.132812 182.823H1511.73" stroke="#7A9DCD" stroke-opacity="0.4" stroke-width="2"/>
<path d="M0.132812 215.566H1511.73" stroke="#7A9DCD" stroke-opacity="0.4" stroke-width="2"/>
<path d="M0.132812 248.309H1511.73" stroke="#7A9DCD" stroke-opacity="0.4" stroke-width="2"/>
<path d="M0.132812 281.051H1511.73" stroke="#7A9DCD" stroke-opacity="0.4" stroke-width="2"/>
<path d="M0.132812 313.794H1511.73" stroke="#7A9DCD" stroke-opacity="0.4" stroke-width="2"/>
<path d="M0.132812 346.536H1511.73" stroke="#7A9DCD" stroke-opacity="0.4" stroke-width="2"/>
</svg>
