<svg width="142" height="144" viewBox="0 0 142 144" fill="none" xmlns="http://www.w3.org/2000/svg">
<path d="M127.334 143.975L141.536 142.006L128.178 126.679L127.334 143.975Z" fill="#481390"/>
<path d="M1.11133 15.7859V1.42847H4.70077L17.9365 15.7859H1.11133Z" fill="#481390"/>
<path d="M51.7803 0.854065H0.701172L141.68 142.514V90.7535L51.7803 0.854065Z" fill="#7A47BF"/>
<path d="M42.6658 20.9731C42.4395 21.1993 42.2896 21.4341 42.2161 21.6773C42.1482 21.9149 42.2189 22.1384 42.4282 22.3477L42.4791 22.3986C42.564 22.4834 42.564 22.5683 42.4791 22.6531L42.2245 22.9077C42.1397 22.9926 42.0548 22.9926 41.97 22.9077L39.365 20.3027C39.2802 20.2179 39.2802 20.133 39.365 20.0482L39.6196 19.7936C39.7044 19.7088 39.7893 19.7088 39.8741 19.7936L39.9335 19.853C40.1485 20.068 40.3719 20.1387 40.6039 20.0651C40.8471 19.9916 41.0819 19.8417 41.3081 19.6154L45.0417 15.8819C45.2736 15.65 45.4207 15.4124 45.4829 15.1691C45.5508 14.9315 45.4688 14.6968 45.2368 14.4648L45.2283 14.4564C45.1435 14.3715 45.1435 14.2867 45.2283 14.2018L45.4829 13.9472C45.5677 13.8624 45.6526 13.8624 45.7375 13.9472L48.8515 17.0613C49.3098 17.5196 49.6181 18.0089 49.7764 18.5293C49.9405 19.0441 49.9716 19.539 49.8698 20.0142C49.7736 20.4837 49.5643 20.8797 49.2419 21.2022C48.8798 21.5642 48.4641 21.8046 47.9945 21.9234C47.5307 22.0365 47.0131 21.9772 46.4417 21.7452C45.8704 21.5133 45.2396 21.0523 44.5495 20.3621L43.9131 19.7257L42.6658 20.9731ZM45.0077 19.6154C45.5734 20.1811 46.0882 20.4922 46.552 20.5488C47.0272 20.6054 47.4996 20.3989 47.9691 19.9294C48.3594 19.539 48.563 19.0922 48.58 18.5887C48.597 18.0852 48.3933 17.6214 47.9691 17.1971L47.1545 16.3825L44.4647 19.0724L45.0077 19.6154ZM51.7943 31.7138C51.8791 31.7986 51.8791 31.8835 51.7943 31.9683L51.5397 32.2229C51.4549 32.3077 51.37 32.3077 51.2852 32.2229L48.6802 29.6179C48.5953 29.5331 48.5953 29.4482 48.6802 29.3633L48.9347 29.1088C49.0196 29.0239 49.1045 29.0239 49.1893 29.1088L49.2402 29.1597C49.3816 29.3011 49.5259 29.3662 49.673 29.3549C49.8257 29.3379 49.9586 29.2728 50.0718 29.1597C50.2019 29.0296 50.2952 28.8627 50.3518 28.6591L51.0221 26.4444C50.8354 26.2917 50.6431 26.1163 50.4451 25.9183L49.8087 25.2819L48.3917 26.699C48.1654 26.9252 48.0155 27.16 47.942 27.4032C47.8741 27.6408 47.9448 27.8643 48.1541 28.0736L48.205 28.1245C48.2899 28.2093 48.2899 28.2942 48.205 28.3791L47.9505 28.6336C47.8656 28.7185 47.7807 28.7185 47.6959 28.6336L45.0909 26.0286C45.0061 25.9438 45.0061 25.8589 45.0909 25.7741L45.3455 25.5195C45.4303 25.4347 45.5152 25.4347 45.6 25.5195L45.6594 25.5789C45.8744 25.7939 46.0978 25.8646 46.3298 25.791C46.573 25.7175 46.8078 25.5676 47.034 25.3413L50.7676 21.6078C50.9995 21.3759 51.1466 21.1383 51.2088 20.895C51.2767 20.6574 51.1918 20.4199 50.9542 20.1823C50.8694 20.0974 50.8694 20.0126 50.9542 19.9277L51.2088 19.6732C51.2937 19.5883 51.3785 19.5883 51.4634 19.6732L54.5775 22.7873C55.0357 23.2455 55.3524 23.7263 55.5278 24.2298C55.7032 24.7332 55.7484 25.214 55.6636 25.6722C55.5787 26.1305 55.3751 26.5208 55.0526 26.8432C54.7641 27.1317 54.4078 27.3354 53.9835 27.4542C53.5592 27.573 53.0756 27.5362 52.5325 27.3438L51.7094 30.0167C51.6133 30.3392 51.5426 30.6418 51.4973 30.9246C51.4577 31.2131 51.5426 31.462 51.7519 31.6713L51.7943 31.7138ZM50.9033 25.1716C51.469 25.7373 51.9923 26.0399 52.4731 26.0795C52.9596 26.1248 53.3952 25.9551 53.7798 25.5704C54.1702 25.1801 54.3597 24.7474 54.3484 24.2722C54.337 23.797 54.1193 23.3473 53.695 22.923L52.9313 22.1593L50.4112 24.6795L50.9033 25.1716ZM60.7599 28.7661C61.2068 29.213 61.5377 29.7192 61.7527 30.2849C61.9733 30.8563 62.0751 31.4446 62.0582 32.0499C62.0525 32.6551 61.9309 33.2406 61.6933 33.8063C61.4614 34.3777 61.1191 34.8896 60.6666 35.3422C60.214 35.7947 59.7077 36.1369 59.1477 36.3689C58.5933 36.5951 58.022 36.7083 57.4337 36.7083C56.851 36.7139 56.2853 36.6121 55.7366 36.4028C55.1936 36.1879 54.7071 35.8654 54.2772 35.4355C53.8303 34.9886 53.4965 34.4795 53.2759 33.9081C53.0609 33.3425 52.9591 32.7598 52.9704 32.1602C52.9874 31.5549 53.1118 30.9666 53.3438 30.3952C53.5814 29.8296 53.9236 29.3233 54.3705 28.8764C54.8117 28.4351 55.3067 28.0986 55.8554 27.8666C56.4041 27.6347 56.9698 27.5102 57.5525 27.4933C58.1464 27.4763 58.7178 27.5725 59.2665 27.7818C59.8152 27.9911 60.313 28.3192 60.7599 28.7661ZM59.9199 29.4194C59.3542 28.8537 58.7263 28.6048 58.0361 28.6727C57.3517 28.7349 56.7011 29.0744 56.0845 29.691C55.8413 29.9342 55.6065 30.2199 55.3802 30.548C55.154 30.8761 54.9588 31.224 54.7948 31.5917C54.642 31.9594 54.5402 32.3327 54.4893 32.7117C54.4384 33.0907 54.4582 33.4556 54.5487 33.8063C54.6392 34.157 54.8287 34.4767 55.1172 34.7652C55.5019 35.1498 55.912 35.3902 56.3476 35.4864C56.7945 35.5826 57.2385 35.5458 57.6798 35.3761C58.1323 35.2064 58.5594 34.9207 58.961 34.5191C59.1816 34.2985 59.4023 34.0269 59.6229 33.7045C59.8492 33.3877 60.0415 33.0426 60.1999 32.6693C60.3696 32.2959 60.4827 31.9169 60.5393 31.5323C60.6072 31.1476 60.5959 30.7742 60.5054 30.4122C60.4148 30.0502 60.2197 29.7192 59.9199 29.4194ZM60.7769 27.663C61.1898 27.6121 61.5264 27.5583 61.7866 27.5018C62.0525 27.4508 62.2901 27.3886 62.4994 27.3151C62.72 27.2415 62.9576 27.151 63.2122 27.0436C63.2857 27.0153 63.3592 27.0266 63.4328 27.0775C63.5176 27.1284 63.5883 27.1821 63.6449 27.2387C63.809 27.4028 63.9108 27.5781 63.9504 27.7648C64.0013 27.9515 63.9532 28.1184 63.8061 28.2654C63.5912 28.4804 63.3253 28.6048 63.0085 28.6388C62.703 28.6727 62.3863 28.6558 62.0582 28.5879C61.7414 28.52 61.4557 28.438 61.2011 28.3418C61.1672 28.3305 61.1304 28.3163 61.0908 28.2994C61.0569 28.2881 61.0258 28.2683 60.9975 28.24C60.9749 28.2173 60.9551 28.1806 60.9381 28.1297L60.7769 27.663ZM64.9151 44.7158C65.0056 44.8063 65.0028 44.8997 64.9066 44.9958L64.6266 45.2758C64.5304 45.372 64.4371 45.3748 64.3466 45.2843L61.8265 42.7642C61.7303 42.668 61.7303 42.5719 61.8265 42.4757L62.1065 42.1957C62.2027 42.0995 62.2988 42.0995 62.395 42.1957L62.412 42.2126C62.4742 42.2749 62.559 42.3371 62.6665 42.3993C62.7797 42.4559 62.8786 42.4418 62.9635 42.3569C62.9974 42.323 63.0257 42.272 63.0484 42.2042C63.0766 42.1419 63.0936 42.0571 63.0993 41.9496L63.4047 38.827L60.5876 39.1834C60.384 39.206 60.2143 39.2343 60.0785 39.2683C59.9541 39.3022 59.8692 39.3418 59.8239 39.387C59.7447 39.4662 59.7815 39.5822 59.9343 39.7349L60.1209 39.9216C60.2171 40.0178 60.2171 40.114 60.1209 40.2101L59.8409 40.4901C59.7447 40.5863 59.6486 40.5863 59.5524 40.4901L57.5584 38.4961C57.4622 38.3999 57.4622 38.3038 57.5584 38.2076L57.8384 37.9276C57.9346 37.8314 58.0307 37.8314 58.1269 37.9276L58.1693 37.97C58.3503 38.151 58.5398 38.25 58.7378 38.267C58.9415 38.2783 59.23 38.2613 59.6033 38.2161L63.515 37.7324L63.846 34.3977C63.9139 33.6623 63.8347 33.1815 63.6084 32.9552L63.5914 32.9382C63.4952 32.8421 63.4952 32.7459 63.5914 32.6497L63.8714 32.3697C63.9676 32.2736 64.0638 32.2736 64.1599 32.3697L66.6207 34.8305C66.7168 34.9266 66.7168 35.0228 66.6207 35.119L66.3406 35.399C66.2445 35.4951 66.1511 35.498 66.0606 35.4075L66.0437 35.3905C65.8117 35.1586 65.6477 35.0907 65.5515 35.1868C65.478 35.2604 65.4327 35.4131 65.4157 35.645L65.1697 38.1312L67.3249 37.8767C67.5229 37.8484 67.687 37.8201 67.8171 37.7918C67.9472 37.7635 68.0349 37.7268 68.0801 37.6815C68.1593 37.6023 68.1226 37.4863 67.9698 37.3336L67.8765 37.2403C67.7803 37.1441 67.7803 37.0479 67.8765 36.9518L68.165 36.6633C68.2611 36.5671 68.3573 36.5671 68.4535 36.6633L70.4475 38.6573C70.5437 38.7535 70.5437 38.8496 70.4475 38.9458L70.159 39.2343C70.0629 39.3305 69.9667 39.3305 69.8705 39.2343L69.7348 39.0985C69.5594 38.9232 69.3671 38.827 69.1578 38.8101C68.9598 38.7931 68.6741 38.8072 68.3007 38.8525L65.0594 39.2258L64.6606 43.2563C64.587 43.9861 64.6634 44.4641 64.8897 44.6904L64.9151 44.7158ZM68.2883 46.5956C68.0621 46.8219 67.9122 47.0567 67.8386 47.2999C67.7707 47.5375 67.8415 47.7609 68.0508 47.9702L68.1017 48.0212C68.1865 48.106 68.1865 48.1909 68.1017 48.2757L67.8471 48.5303C67.7623 48.6151 67.6774 48.6151 67.5926 48.5303L64.9876 45.9253C64.9027 45.8404 64.9027 45.7556 64.9876 45.6707L65.2421 45.4162C65.327 45.3313 65.4118 45.3313 65.4967 45.4162L65.5561 45.4756C65.771 45.6905 65.9945 45.7612 66.2264 45.6877C66.4697 45.6142 66.7044 45.4643 66.9307 45.238L70.6642 41.5045C70.8905 41.2782 71.0376 41.0463 71.1055 40.8087C71.1847 40.5711 71.1168 40.3448 70.9018 40.1298L70.8424 40.0704C70.7576 39.9856 70.7576 39.9007 70.8424 39.8159L71.097 39.5613C71.1818 39.4765 71.2667 39.4765 71.3515 39.5613L73.9565 42.1663C74.0414 42.2512 74.0414 42.336 73.9565 42.4209L73.702 42.6754C73.6171 42.7603 73.5322 42.7603 73.4474 42.6754L73.3965 42.6245C73.1872 42.4152 72.9609 42.3473 72.7177 42.4209C72.4801 42.4888 72.2481 42.6358 72.0219 42.8621L68.2883 46.5956ZM77.0321 55.3394C76.8058 55.5657 76.6644 55.8089 76.6078 56.0691C76.5626 56.3293 76.6446 56.5641 76.8539 56.7734C76.9388 56.8582 76.9388 56.9431 76.8539 57.0279L76.5993 57.2825C76.5145 57.3674 76.4296 57.3674 76.3448 57.2825L74.2489 55.1866C74.1641 55.1018 74.1641 55.0169 74.2489 54.9321L74.5035 54.6775C74.5883 54.5927 74.6732 54.5927 74.758 54.6775C74.9673 54.8868 75.1993 54.966 75.4538 54.9151C75.714 54.8585 75.9573 54.7171 76.1836 54.4909L79.3995 51.2749L73.341 53.3284C73.2505 53.3623 73.1713 53.3453 73.1034 53.2775L72.3228 52.4968C72.2549 52.4289 72.2351 52.3469 72.2634 52.2507L74.3253 46.2007L71.1094 49.4167C70.8831 49.6429 70.7417 49.8862 70.6851 50.1464C70.6342 50.4009 70.7134 50.6329 70.9227 50.8422C71.0075 50.927 71.0075 51.0119 70.9227 51.0967L70.6681 51.3513C70.5833 51.4361 70.4984 51.4361 70.4136 51.3513L68.3177 49.2554C68.2329 49.1706 68.2329 49.0857 68.3177 49.0009L68.5723 48.7463C68.6571 48.6615 68.742 48.6615 68.8268 48.7463C69.0361 48.9556 69.2681 49.0348 69.5226 48.9839C69.7885 48.933 70.0346 48.7944 70.2608 48.5681L74.6732 44.1558C74.6392 44.0313 74.5855 43.9154 74.512 43.8079C74.4497 43.7004 74.3705 43.5986 74.2744 43.5024C74.1895 43.4176 74.1895 43.3327 74.2744 43.2479L74.5289 42.9933C74.6138 42.9084 74.6986 42.9084 74.7835 42.9933L76.3787 44.5885C76.4579 44.6677 76.4834 44.7441 76.4551 44.8176L74.2404 51.3598L80.7826 49.1451C80.8561 49.1168 80.9325 49.1423 81.0117 49.2215L82.6069 50.8167C82.6918 50.9016 82.6918 50.9864 82.6069 51.0713L82.3524 51.3258C82.2675 51.4107 82.1827 51.4107 82.0978 51.3258C82.0073 51.2353 81.9055 51.1561 81.7923 51.0883C81.6849 51.0147 81.5689 50.961 81.4444 50.927L77.0321 55.3394ZM83.9063 62.2136C83.7649 62.536 83.6602 62.816 83.5923 63.0536C83.5245 63.2912 83.5697 63.4892 83.7281 63.6476C83.7847 63.7042 83.8073 63.7494 83.796 63.7834C83.796 63.8173 83.7734 63.8569 83.7281 63.9022L83.4736 64.1567C83.3887 64.2416 83.3038 64.2416 83.219 64.1567L80.614 61.5517C80.5292 61.4669 80.5292 61.382 80.614 61.2972L80.8686 61.0426C80.9138 60.9974 80.9506 60.9719 80.9789 60.9662C81.0185 60.9606 81.0666 60.986 81.1231 61.0426C81.2759 61.1953 81.4795 61.2859 81.7341 61.3141C81.9943 61.3481 82.2064 61.283 82.3705 61.119C82.4101 61.0794 82.4412 61.037 82.4638 60.9917C82.4921 60.9521 82.5204 60.9068 82.5487 60.8559L83.0069 59.8716L80.6819 57.5467L79.7061 58.0134C79.6552 58.0417 79.6071 58.0728 79.5618 58.1067C79.5222 58.135 79.4883 58.1633 79.46 58.1916C79.279 58.3726 79.2083 58.5904 79.2479 58.8449C79.2875 59.0995 79.3808 59.3003 79.5279 59.4474C79.5901 59.5096 79.6156 59.5577 79.6043 59.5916C79.5986 59.6199 79.5732 59.6567 79.5279 59.7019L79.2733 59.9565C79.1885 60.0414 79.1036 60.0414 79.0188 59.9565L76.9059 57.8437C76.8211 57.7588 76.8211 57.674 76.9059 57.5891L77.1605 57.3345C77.2058 57.2893 77.2425 57.2638 77.2708 57.2582C77.3104 57.2525 77.3585 57.278 77.4151 57.3345C77.5848 57.5043 77.7912 57.5523 78.0345 57.4788C78.2834 57.4109 78.5577 57.3063 78.8576 57.1648L85.6203 54.0507C85.7165 53.9998 85.8013 54.0111 85.8749 54.0847L86.9016 55.1114C86.9751 55.1849 86.9893 55.267 86.944 55.3575L83.9063 62.2136ZM81.6832 57.0715L83.4736 58.8619L85.0348 55.4678L81.6832 57.0715ZM92.4945 70.8018C92.2683 71.0281 92.1268 71.2713 92.0703 71.5315C92.025 71.7918 92.107 72.0265 92.3163 72.2358C92.4012 72.3207 92.4012 72.4055 92.3163 72.4904L92.0618 72.7449C91.9769 72.8298 91.8921 72.8298 91.8072 72.7449L89.7114 70.6491C89.6265 70.5642 89.6265 70.4794 89.7114 70.3945L89.9659 70.14C90.0508 70.0551 90.1356 70.0551 90.2205 70.14C90.4298 70.3493 90.6617 70.4285 90.9163 70.3776C91.1765 70.321 91.4197 70.1796 91.646 69.9533L94.8619 66.7374L88.8034 68.7908C88.7129 68.8247 88.6337 68.8078 88.5658 68.7399L87.7852 67.9592C87.7173 67.8914 87.6975 67.8093 87.7258 67.7132L89.7877 61.6632L86.5718 64.8791C86.3455 65.1054 86.2041 65.3486 86.1475 65.6088C86.0966 65.8634 86.1758 66.0953 86.3851 66.3046C86.47 66.3895 86.47 66.4743 86.3851 66.5592L86.1306 66.8137C86.0457 66.8986 85.9609 66.8986 85.876 66.8137L83.7801 64.7179C83.6953 64.633 83.6953 64.5482 83.7801 64.4633L84.0347 64.2088C84.1196 64.1239 84.2044 64.1239 84.2893 64.2088C84.4986 64.4181 84.7305 64.4973 84.9851 64.4463C85.2509 64.3954 85.497 64.2568 85.7233 64.0306L90.1356 59.6182C90.1017 59.4938 90.0479 59.3778 89.9744 59.2703C89.9122 59.1628 89.833 59.061 89.7368 58.9648C89.652 58.88 89.652 58.7951 89.7368 58.7103L89.9914 58.4557C90.0762 58.3709 90.1611 58.3709 90.2459 58.4557L91.8412 60.051C91.9204 60.1302 91.9458 60.2065 91.9175 60.2801L89.7029 66.8222L96.245 64.6076C96.3186 64.5793 96.3949 64.6047 96.4741 64.6839L98.0694 66.2792C98.1542 66.364 98.1542 66.4489 98.0694 66.5337L97.8148 66.7883C97.73 66.8731 97.6451 66.8731 97.5602 66.7883C97.4697 66.6978 97.3679 66.6186 97.2548 66.5507C97.1473 66.4771 97.0313 66.4234 96.9069 66.3895L92.4945 70.8018ZM100.166 77.4724C100.189 77.5516 100.183 77.6081 100.149 77.6421C100.127 77.6647 100.09 77.6845 100.039 77.7015L97.5614 78.5839C97.4878 78.6122 97.4284 78.6037 97.3832 78.5585C97.3549 78.5302 97.3408 78.4934 97.3408 78.4482L97.3408 78.3633C97.3408 78.3068 97.2983 78.236 97.2135 78.1512L92.572 73.5097C92.4872 73.4249 92.4872 73.34 92.572 73.2552L92.8266 73.0006C92.9114 72.9158 92.9963 72.9158 93.0811 73.0006L93.0981 73.0176C93.5054 73.4249 93.9778 73.3598 94.5152 72.8224L98.2402 69.0974C98.7776 68.56 98.8398 68.0848 98.4269 67.6719L98.4184 67.6634C98.3335 67.5785 98.3335 67.4937 98.4184 67.4088L98.6729 67.1543C98.7635 67.0638 98.8511 67.0609 98.936 67.1458L103.187 71.3969C103.261 71.4704 103.329 71.51 103.391 71.5157L103.484 71.5242C103.518 71.5242 103.549 71.5383 103.577 71.5666C103.623 71.6119 103.637 71.6713 103.62 71.7448L103.136 73.5691C103.131 73.6087 103.114 73.6427 103.085 73.671C103.046 73.7106 102.989 73.7219 102.916 73.7049L102.389 73.5522C102.327 73.5352 102.285 73.5154 102.262 73.4928C102.223 73.4532 102.214 73.3938 102.237 73.3146L102.254 73.2467C102.373 72.7772 102.387 72.384 102.296 72.0672C102.217 71.7505 102.013 71.428 101.685 71.0999L100.311 69.7253L98.3166 71.7194L99.0633 72.4661C99.3178 72.7206 99.5639 72.8705 99.8015 72.9158C100.039 72.961 100.251 72.8903 100.438 72.7036L100.497 72.6442C100.582 72.5594 100.667 72.5594 100.752 72.6442L101.006 72.8988C101.091 72.9837 101.091 73.0685 101.006 73.1534L99.0802 75.0795C98.9954 75.1644 98.9105 75.1644 98.8257 75.0795L98.5711 74.825C98.4863 74.7401 98.4863 74.6553 98.5711 74.5704L98.622 74.5195C98.8144 74.3272 98.8851 74.115 98.8342 73.8831C98.7946 73.6512 98.6447 73.4051 98.3844 73.1449L97.6377 72.3982L95.9577 74.0783C95.4203 74.6157 95.3467 75.0795 95.737 75.4698L96.2886 76.0214C96.7072 76.44 97.0862 76.7398 97.4256 76.9208C97.7707 77.1075 98.1242 77.1952 98.4863 77.1839C98.854 77.1782 99.2754 77.0962 99.7506 76.9378L99.8269 76.9123C99.9005 76.8954 99.9599 76.9095 100.005 76.9548C100.033 76.9831 100.05 77.0113 100.056 77.0396L100.166 77.4724ZM112.051 80.2607C112.136 80.3456 112.136 80.4304 112.051 80.5153L111.796 80.7698C111.712 80.8547 111.627 80.8547 111.542 80.7698C111.332 80.5605 111.101 80.4813 110.846 80.5322C110.591 80.5832 110.348 80.7246 110.116 80.9565L105.195 85.878C105.11 85.9628 105.025 85.9628 104.94 85.878L104.355 85.2925C104.298 85.2359 104.273 85.1596 104.278 85.0634L104.881 76.4339L101.504 79.811C101.277 80.0373 101.136 80.2805 101.079 80.5407C101.034 80.8009 101.116 81.0357 101.326 81.245C101.41 81.3299 101.41 81.4147 101.326 81.4996L101.071 81.7541C100.986 81.839 100.901 81.839 100.816 81.7541L98.7205 79.6583C98.6357 79.5734 98.6357 79.4886 98.7205 79.4037L98.9751 79.1491C99.06 79.0643 99.1448 79.0643 99.2297 79.1491C99.439 79.3584 99.6709 79.4376 99.9255 79.3867C100.186 79.3302 100.429 79.1887 100.655 78.9625L104.983 74.635C104.971 74.4766 104.94 74.338 104.889 74.2192C104.844 74.1061 104.768 73.9957 104.66 73.8883C104.575 73.8034 104.575 73.7186 104.66 73.6337L104.915 73.3792C105 73.2943 105.085 73.2943 105.169 73.3792L106.637 74.8471C106.7 74.9093 106.725 74.9857 106.714 75.0762L106.179 83.1966L109.268 80.108C109.5 79.876 109.638 79.63 109.684 79.3698C109.734 79.1152 109.655 78.8833 109.446 78.674C109.361 78.5891 109.361 78.5043 109.446 78.4194L109.7 78.1649C109.785 78.08 109.87 78.08 109.955 78.1649L112.051 80.2607ZM117.666 85.8758C117.694 85.9041 117.728 85.9324 117.768 85.9606C117.819 85.9889 117.884 86.0031 117.963 86.0031C118.008 86.0031 118.045 86.0172 118.073 86.0455C118.119 86.0907 118.127 86.1501 118.099 86.2237L117.53 88.1329C117.513 88.1838 117.496 88.2177 117.479 88.2347C117.434 88.2799 117.377 88.2913 117.31 88.2686L116.758 88.1074C116.707 88.0904 116.67 88.0706 116.648 88.048C116.614 88.0141 116.608 87.9575 116.631 87.8783L116.656 87.8019C116.798 87.3777 116.795 86.9732 116.648 86.5885C116.501 86.2039 116.255 85.839 115.91 85.4939L115.494 85.0782L111.132 89.4396C110.906 89.6659 110.756 89.9006 110.683 90.1439C110.615 90.3815 110.688 90.6077 110.903 90.8227L110.963 90.8821C111.047 90.967 111.047 91.0518 110.963 91.1367L110.708 91.3912C110.623 91.4761 110.538 91.4761 110.453 91.3912L107.84 88.7778C107.755 88.6929 107.755 88.608 107.84 88.5232L108.095 88.2686C108.179 88.1838 108.264 88.1838 108.349 88.2686L108.4 88.3195C108.615 88.5345 108.841 88.608 109.079 88.5402C109.322 88.4666 109.557 88.3167 109.783 88.0904L114.145 83.729L113.729 83.3132C113.384 82.9682 113.019 82.7221 112.634 82.575C112.25 82.4279 111.845 82.4251 111.421 82.5665L111.344 82.592C111.265 82.6146 111.209 82.609 111.175 82.575C111.152 82.5524 111.132 82.5156 111.115 82.4647L110.954 81.9132C110.932 81.8453 110.943 81.7887 110.988 81.7435C111.005 81.7265 111.039 81.7095 111.09 81.6925L112.999 81.124C113.078 81.1014 113.138 81.1099 113.177 81.1495C113.206 81.1778 113.22 81.2145 113.22 81.2598C113.22 81.339 113.231 81.4012 113.254 81.4465C113.288 81.4917 113.319 81.5285 113.347 81.5568L117.666 85.8758ZM120.393 97.6995C120.416 97.7787 120.41 97.8353 120.377 97.8692C120.354 97.8918 120.317 97.9116 120.266 97.9286L117.788 98.8111C117.715 98.8393 117.656 98.8309 117.61 98.7856C117.582 98.7573 117.568 98.7206 117.568 98.6753L117.568 98.5904C117.568 98.5339 117.525 98.4632 117.441 98.3783L112.799 93.7369C112.714 93.652 112.714 93.5672 112.799 93.4823L113.054 93.2277C113.139 93.1429 113.223 93.1429 113.308 93.2277L113.325 93.2447C113.733 93.652 114.205 93.587 114.742 93.0496L118.467 89.3245C119.005 88.7871 119.067 88.3119 118.654 87.899L118.646 87.8905C118.561 87.8057 118.561 87.7208 118.646 87.6359L118.9 87.3814C118.991 87.2909 119.078 87.2881 119.163 87.3729L123.414 91.624C123.488 91.6976 123.556 91.7372 123.618 91.7428L123.711 91.7513C123.745 91.7513 123.776 91.7655 123.805 91.7937C123.85 91.839 123.864 91.8984 123.847 91.9719L123.363 93.7963C123.358 93.8359 123.341 93.8698 123.312 93.8981C123.273 93.9377 123.216 93.949 123.143 93.932L122.617 93.7793C122.554 93.7623 122.512 93.7425 122.489 93.7199C122.45 93.6803 122.441 93.6209 122.464 93.5417L122.481 93.4738C122.6 93.0043 122.614 92.6112 122.523 92.2944C122.444 91.9776 122.24 91.6551 121.912 91.327L120.538 89.9524L118.544 91.9465L119.29 92.6932C119.545 92.9477 119.791 93.0976 120.029 93.1429C120.266 93.1882 120.478 93.1174 120.665 92.9308L120.724 92.8714C120.809 92.7865 120.894 92.7865 120.979 92.8714L121.234 93.1259C121.318 93.2108 121.318 93.2956 121.234 93.3805L119.307 95.3066C119.223 95.3915 119.138 95.3915 119.053 95.3066L118.798 95.0521C118.713 94.9672 118.713 94.8824 118.798 94.7975L118.849 94.7466C119.041 94.5543 119.112 94.3421 119.061 94.1102C119.022 93.8783 118.872 93.6322 118.612 93.372L117.865 92.6253L116.185 94.3054C115.647 94.8428 115.574 95.3066 115.964 95.697L116.516 96.2485C116.934 96.6671 117.313 96.9669 117.653 97.1479C117.998 97.3346 118.351 97.4223 118.713 97.411C119.081 97.4053 119.503 97.3233 119.978 97.1649L120.054 97.1395C120.128 97.1225 120.187 97.1366 120.232 97.1819C120.261 97.2102 120.278 97.2385 120.283 97.2667L120.393 97.6995Z" fill="white"/>
</svg>
