<svg width="142" height="144" viewBox="0 0 142 144" fill="none" xmlns="http://www.w3.org/2000/svg">
<path d="M127.334 143.975L141.536 142.006L128.178 126.679L127.334 143.975Z" fill="#023E61"/>
<path d="M1.11133 15.7858V1.42841H4.70077L17.9365 15.7858H1.11133Z" fill="#023E61"/>
<path d="M51.7803 0.854004H0.701172L141.68 142.514V90.7534L51.7803 0.854004Z" fill="#006AA8"/>
<path d="M42.6658 20.973C42.4395 21.1993 42.2896 21.434 42.2161 21.6773C42.1482 21.9149 42.2189 22.1383 42.4282 22.3476L42.4791 22.3985C42.564 22.4834 42.564 22.5682 42.4791 22.6531L42.2245 22.9076C42.1397 22.9925 42.0548 22.9925 41.97 22.9076L39.365 20.3027C39.2802 20.2178 39.2802 20.133 39.365 20.0481L39.6196 19.7935C39.7044 19.7087 39.7893 19.7087 39.8741 19.7935L39.9335 19.8529C40.1485 20.0679 40.3719 20.1386 40.6039 20.0651C40.8471 19.9915 41.0819 19.8416 41.3081 19.6154L45.0417 15.8818C45.2736 15.6499 45.4207 15.4123 45.4829 15.1691C45.5508 14.9315 45.4688 14.6967 45.2368 14.4648L45.2283 14.4563C45.1435 14.3715 45.1435 14.2866 45.2283 14.2017L45.4829 13.9472C45.5677 13.8623 45.6526 13.8623 45.7375 13.9472L48.8515 17.0613C49.3098 17.5195 49.6181 18.0088 49.7764 18.5292C49.9405 19.044 49.9716 19.539 49.8698 20.0142C49.7736 20.4837 49.5643 20.8797 49.2419 21.2021C48.8798 21.5641 48.4641 21.8046 47.9945 21.9234C47.5307 22.0365 47.0131 21.9771 46.4417 21.7452C45.8704 21.5132 45.2396 21.0522 44.5495 20.3621L43.9131 19.7257L42.6658 20.973ZM45.0077 19.6154C45.5734 20.181 46.0882 20.4922 46.552 20.5487C47.0272 20.6053 47.4996 20.3988 47.9691 19.9293C48.3594 19.539 48.563 19.0921 48.58 18.5886C48.597 18.0852 48.3933 17.6213 47.9691 17.197L47.1545 16.3825L44.4647 19.0723L45.0077 19.6154ZM51.7943 31.7137C51.8791 31.7986 51.8791 31.8834 51.7943 31.9683L51.5397 32.2228C51.4549 32.3077 51.37 32.3077 51.2852 32.2228L48.6802 29.6178C48.5953 29.533 48.5953 29.4481 48.6802 29.3633L48.9347 29.1087C49.0196 29.0239 49.1045 29.0239 49.1893 29.1087L49.2402 29.1596C49.3816 29.3011 49.5259 29.3661 49.673 29.3548C49.8257 29.3378 49.9586 29.2728 50.0718 29.1596C50.2019 29.0295 50.2952 28.8627 50.3518 28.659L51.0221 26.4443C50.8354 26.2916 50.6431 26.1163 50.4451 25.9183L49.8087 25.2819L48.3917 26.6989C48.1654 26.9252 48.0155 27.1599 47.942 27.4032C47.8741 27.6408 47.9448 27.8642 48.1541 28.0735L48.205 28.1244C48.2899 28.2093 48.2899 28.2941 48.205 28.379L47.9505 28.6336C47.8656 28.7184 47.7807 28.7184 47.6959 28.6336L45.0909 26.0286C45.0061 25.9437 45.0061 25.8589 45.0909 25.774L45.3455 25.5195C45.4303 25.4346 45.5152 25.4346 45.6 25.5195L45.6594 25.5789C45.8744 25.7938 46.0978 25.8645 46.3298 25.791C46.573 25.7174 46.8078 25.5675 47.034 25.3413L50.7676 21.6077C50.9995 21.3758 51.1466 21.1382 51.2088 20.895C51.2767 20.6574 51.1918 20.4198 50.9542 20.1822C50.8694 20.0974 50.8694 20.0125 50.9542 19.9277L51.2088 19.6731C51.2937 19.5882 51.3785 19.5882 51.4634 19.6731L54.5775 22.7872C55.0357 23.2454 55.3524 23.7262 55.5278 24.2297C55.7032 24.7332 55.7484 25.214 55.6636 25.6722C55.5787 26.1304 55.3751 26.5207 55.0526 26.8432C54.7641 27.1317 54.4078 27.3353 53.9835 27.4541C53.5592 27.5729 53.0756 27.5361 52.5325 27.3438L51.7094 30.0167C51.6133 30.3391 51.5426 30.6417 51.4973 30.9246C51.4577 31.2131 51.5426 31.462 51.7519 31.6713L51.7943 31.7137ZM50.9033 25.1716C51.469 25.7372 51.9923 26.0399 52.4731 26.0795C52.9596 26.1247 53.3952 25.955 53.7798 25.5704C54.1702 25.18 54.3597 24.7473 54.3484 24.2721C54.337 23.7969 54.1193 23.3472 53.695 22.923L52.9313 22.1593L50.4112 24.6794L50.9033 25.1716ZM60.7599 28.766C61.2068 29.2129 61.5377 29.7192 61.7527 30.2849C61.9733 30.8562 62.0751 31.4445 62.0582 32.0498C62.0525 32.6551 61.9309 33.2406 61.6933 33.8063C61.4614 34.3776 61.1191 34.8895 60.6666 35.3421C60.214 35.7946 59.7077 36.1369 59.1477 36.3688C58.5933 36.5951 58.022 36.7082 57.4337 36.7082C56.851 36.7139 56.2853 36.6121 55.7366 36.4028C55.1936 36.1878 54.7071 35.8654 54.2772 35.4354C53.8303 34.9885 53.4965 34.4794 53.2759 33.9081C53.0609 33.3424 52.9591 32.7597 52.9704 32.1601C52.9874 31.5548 53.1118 30.9665 53.3438 30.3952C53.5814 29.8295 53.9236 29.3232 54.3705 28.8763C54.8117 28.4351 55.3067 28.0985 55.8554 27.8666C56.4041 27.6346 56.9698 27.5102 57.5525 27.4932C58.1464 27.4762 58.7178 27.5724 59.2665 27.7817C59.8152 27.991 60.313 28.3191 60.7599 28.766ZM59.9199 29.4194C59.3542 28.8537 58.7263 28.6048 58.0361 28.6727C57.3517 28.7349 56.7011 29.0743 56.0845 29.6909C55.8413 29.9341 55.6065 30.2198 55.3802 30.5479C55.154 30.876 54.9588 31.2239 54.7948 31.5916C54.642 31.9593 54.5402 32.3326 54.4893 32.7117C54.4384 33.0907 54.4582 33.4555 54.5487 33.8063C54.6392 34.157 54.8287 34.4766 55.1172 34.7651C55.5019 35.1498 55.912 35.3902 56.3476 35.4863C56.7945 35.5825 57.2385 35.5457 57.6798 35.376C58.1323 35.2063 58.5594 34.9207 58.961 34.519C59.1816 34.2984 59.4023 34.0269 59.6229 33.7044C59.8492 33.3877 60.0415 33.0426 60.1999 32.6692C60.3696 32.2959 60.4827 31.9169 60.5393 31.5322C60.6072 31.1475 60.5959 30.7742 60.5054 30.4121C60.4148 30.0501 60.2197 29.7192 59.9199 29.4194ZM60.7769 27.6629C61.1898 27.612 61.5264 27.5583 61.7866 27.5017C62.0525 27.4508 62.2901 27.3886 62.4994 27.315C62.72 27.2415 62.9576 27.151 63.2122 27.0435C63.2857 27.0152 63.3592 27.0265 63.4328 27.0774C63.5176 27.1283 63.5883 27.1821 63.6449 27.2387C63.809 27.4027 63.9108 27.5781 63.9504 27.7647C64.0013 27.9514 63.9532 28.1183 63.8061 28.2654C63.5912 28.4803 63.3253 28.6048 63.0085 28.6387C62.703 28.6727 62.3863 28.6557 62.0582 28.5878C61.7414 28.5199 61.4557 28.4379 61.2011 28.3417C61.1672 28.3304 61.1304 28.3163 61.0908 28.2993C61.0569 28.288 61.0258 28.2682 60.9975 28.2399C60.9749 28.2173 60.9551 28.1805 60.9381 28.1296L60.7769 27.6629ZM64.9151 44.7157C65.0056 44.8063 65.0028 44.8996 64.9066 44.9958L64.6266 45.2758C64.5304 45.3719 64.4371 45.3748 64.3466 45.2843L61.8265 42.7641C61.7303 42.668 61.7303 42.5718 61.8265 42.4756L62.1065 42.1956C62.2027 42.0994 62.2988 42.0994 62.395 42.1956L62.412 42.2126C62.4742 42.2748 62.559 42.337 62.6665 42.3993C62.7797 42.4558 62.8786 42.4417 62.9635 42.3568C62.9974 42.3229 63.0257 42.272 63.0484 42.2041C63.0766 42.1419 63.0936 42.057 63.0993 41.9495L63.4047 38.827L60.5876 39.1833C60.384 39.206 60.2143 39.2343 60.0785 39.2682C59.9541 39.3021 59.8692 39.3417 59.8239 39.387C59.7447 39.4662 59.7815 39.5821 59.9343 39.7349L60.1209 39.9216C60.2171 40.0177 60.2171 40.1139 60.1209 40.2101L59.8409 40.4901C59.7447 40.5862 59.6486 40.5862 59.5524 40.4901L57.5584 38.496C57.4622 38.3999 57.4622 38.3037 57.5584 38.2075L57.8384 37.9275C57.9346 37.8314 58.0307 37.8314 58.1269 37.9275L58.1693 37.9699C58.3503 38.151 58.5398 38.25 58.7378 38.2669C58.9415 38.2782 59.23 38.2613 59.6033 38.216L63.515 37.7324L63.846 34.3976C63.9139 33.6623 63.8347 33.1814 63.6084 32.9551L63.5914 32.9382C63.4952 32.842 63.4952 32.7458 63.5914 32.6497L63.8714 32.3697C63.9676 32.2735 64.0638 32.2735 64.1599 32.3697L66.6207 34.8304C66.7168 34.9266 66.7168 35.0227 66.6207 35.1189L66.3406 35.3989C66.2445 35.4951 66.1511 35.4979 66.0606 35.4074L66.0437 35.3904C65.8117 35.1585 65.6477 35.0906 65.5515 35.1868C65.478 35.2603 65.4327 35.413 65.4157 35.645L65.1697 38.1312L67.3249 37.8766C67.5229 37.8483 67.687 37.82 67.8171 37.7918C67.9472 37.7635 68.0349 37.7267 68.0801 37.6814C68.1593 37.6023 68.1226 37.4863 67.9698 37.3336L67.8765 37.2402C67.7803 37.144 67.7803 37.0479 67.8765 36.9517L68.165 36.6632C68.2611 36.567 68.3573 36.567 68.4535 36.6632L70.4475 38.6573C70.5437 38.7534 70.5437 38.8496 70.4475 38.9458L70.159 39.2343C70.0629 39.3304 69.9667 39.3304 69.8705 39.2343L69.7348 39.0985C69.5594 38.9231 69.3671 38.827 69.1578 38.81C68.9598 38.793 68.6741 38.8072 68.3007 38.8524L65.0594 39.2258L64.6606 43.2563C64.587 43.986 64.6634 44.464 64.8897 44.6903L64.9151 44.7157ZM68.2883 46.5956C68.0621 46.8218 67.9122 47.0566 67.8386 47.2998C67.7707 47.5374 67.8415 47.7609 68.0508 47.9702L68.1017 48.0211C68.1865 48.1059 68.1865 48.1908 68.1017 48.2757L67.8471 48.5302C67.7623 48.6151 67.6774 48.6151 67.5926 48.5302L64.9876 45.9252C64.9027 45.8404 64.9027 45.7555 64.9876 45.6707L65.2421 45.4161C65.327 45.3313 65.4118 45.3313 65.4967 45.4161L65.5561 45.4755C65.771 45.6905 65.9945 45.7612 66.2264 45.6876C66.4697 45.6141 66.7044 45.4642 66.9307 45.2379L70.6642 41.5044C70.8905 41.2781 71.0376 41.0462 71.1055 40.8086C71.1847 40.571 71.1168 40.3447 70.9018 40.1298L70.8424 40.0704C70.7576 39.9855 70.7576 39.9007 70.8424 39.8158L71.097 39.5613C71.1818 39.4764 71.2667 39.4764 71.3515 39.5613L73.9565 42.1662C74.0414 42.2511 74.0414 42.336 73.9565 42.4208L73.702 42.6754C73.6171 42.7602 73.5322 42.7602 73.4474 42.6754L73.3965 42.6245C73.1872 42.4152 72.9609 42.3473 72.7177 42.4208C72.4801 42.4887 72.2481 42.6358 72.0219 42.862L68.2883 46.5956ZM77.0321 55.3393C76.8058 55.5656 76.6644 55.8088 76.6078 56.0691C76.5626 56.3293 76.6446 56.564 76.8539 56.7733C76.9388 56.8582 76.9388 56.943 76.8539 57.0279L76.5993 57.2824C76.5145 57.3673 76.4296 57.3673 76.3448 57.2824L74.2489 55.1866C74.1641 55.1017 74.1641 55.0169 74.2489 54.932L74.5035 54.6775C74.5883 54.5926 74.6732 54.5926 74.758 54.6775C74.9673 54.8868 75.1993 54.966 75.4538 54.9151C75.714 54.8585 75.9573 54.7171 76.1836 54.4908L79.3995 51.2749L73.341 53.3283C73.2505 53.3622 73.1713 53.3453 73.1034 53.2774L72.3228 52.4967C72.2549 52.4289 72.2351 52.3468 72.2634 52.2507L74.3253 46.2007L71.1094 49.4166C70.8831 49.6429 70.7417 49.8861 70.6851 50.1463C70.6342 50.4009 70.7134 50.6328 70.9227 50.8421C71.0075 50.927 71.0075 51.0118 70.9227 51.0967L70.6681 51.3512C70.5833 51.4361 70.4984 51.4361 70.4136 51.3512L68.3177 49.2554C68.2329 49.1705 68.2329 49.0857 68.3177 49.0008L68.5723 48.7463C68.6571 48.6614 68.742 48.6614 68.8268 48.7463C69.0361 48.9556 69.2681 49.0348 69.5226 48.9838C69.7885 48.9329 70.0346 48.7943 70.2608 48.5681L74.6732 44.1557C74.6392 44.0313 74.5855 43.9153 74.512 43.8078C74.4497 43.7003 74.3705 43.5985 74.2744 43.5023C74.1895 43.4175 74.1895 43.3326 74.2744 43.2478L74.5289 42.9932C74.6138 42.9084 74.6986 42.9084 74.7835 42.9932L76.3787 44.5885C76.4579 44.6677 76.4834 44.744 76.4551 44.8176L74.2404 51.3597L80.7826 49.1451C80.8561 49.1168 80.9325 49.1422 81.0117 49.2214L82.6069 50.8167C82.6918 50.9015 82.6918 50.9864 82.6069 51.0712L82.3524 51.3258C82.2675 51.4106 82.1827 51.4106 82.0978 51.3258C82.0073 51.2353 81.9055 51.1561 81.7923 51.0882C81.6849 51.0147 81.5689 50.9609 81.4444 50.927L77.0321 55.3393ZM83.9063 62.2135C83.7649 62.536 83.6602 62.816 83.5923 63.0536C83.5245 63.2912 83.5697 63.4891 83.7281 63.6475C83.7847 63.7041 83.8073 63.7494 83.796 63.7833C83.796 63.8172 83.7734 63.8568 83.7281 63.9021L83.4736 64.1567C83.3887 64.2415 83.3038 64.2415 83.219 64.1567L80.614 61.5517C80.5292 61.4668 80.5292 61.382 80.614 61.2971L80.8686 61.0426C80.9138 60.9973 80.9506 60.9718 80.9789 60.9662C81.0185 60.9605 81.0666 60.986 81.1231 61.0426C81.2759 61.1953 81.4795 61.2858 81.7341 61.3141C81.9943 61.348 82.2064 61.283 82.3705 61.1189C82.4101 61.0793 82.4412 61.0369 82.4638 60.9916C82.4921 60.952 82.5204 60.9068 82.5487 60.8559L83.0069 59.8716L80.6819 57.5466L79.7061 58.0133C79.6552 58.0416 79.6071 58.0727 79.5618 58.1066C79.5222 58.1349 79.4883 58.1632 79.46 58.1915C79.279 58.3725 79.2083 58.5903 79.2479 58.8449C79.2875 59.0994 79.3808 59.3002 79.5279 59.4473C79.5901 59.5095 79.6156 59.5576 79.6043 59.5916C79.5986 59.6199 79.5732 59.6566 79.5279 59.7019L79.2733 59.9564C79.1885 60.0413 79.1036 60.0413 79.0188 59.9564L76.9059 57.8436C76.8211 57.7587 76.8211 57.6739 76.9059 57.589L77.1605 57.3345C77.2058 57.2892 77.2425 57.2638 77.2708 57.2581C77.3104 57.2525 77.3585 57.2779 77.4151 57.3345C77.5848 57.5042 77.7912 57.5523 78.0345 57.4787C78.2834 57.4109 78.5577 57.3062 78.8576 57.1648L85.6203 54.0507C85.7165 53.9998 85.8013 54.0111 85.8749 54.0846L86.9016 55.1113C86.9751 55.1849 86.9893 55.2669 86.944 55.3574L83.9063 62.2135ZM81.6832 57.0714L83.4736 58.8618L85.0348 55.4677L81.6832 57.0714ZM92.4945 70.8018C92.2683 71.028 92.1268 71.2713 92.0703 71.5315C92.025 71.7917 92.107 72.0265 92.3163 72.2358C92.4012 72.3206 92.4012 72.4055 92.3163 72.4903L92.0618 72.7449C91.9769 72.8297 91.8921 72.8297 91.8072 72.7449L89.7114 70.649C89.6265 70.5642 89.6265 70.4793 89.7114 70.3945L89.9659 70.1399C90.0508 70.055 90.1356 70.055 90.2205 70.1399C90.4298 70.3492 90.6617 70.4284 90.9163 70.3775C91.1765 70.3209 91.4197 70.1795 91.646 69.9532L94.8619 66.7373L88.8034 68.7907C88.7129 68.8247 88.6337 68.8077 88.5658 68.7398L87.7852 67.9592C87.7173 67.8913 87.6975 67.8093 87.7258 67.7131L89.7877 61.6631L86.5718 64.879C86.3455 65.1053 86.2041 65.3485 86.1475 65.6088C86.0966 65.8633 86.1758 66.0953 86.3851 66.3046C86.47 66.3894 86.47 66.4743 86.3851 66.5591L86.1306 66.8137C86.0457 66.8985 85.9609 66.8985 85.876 66.8137L83.7801 64.7178C83.6953 64.633 83.6953 64.5481 83.7801 64.4632L84.0347 64.2087C84.1196 64.1238 84.2044 64.1238 84.2893 64.2087C84.4986 64.418 84.7305 64.4972 84.9851 64.4463C85.2509 64.3954 85.497 64.2568 85.7233 64.0305L90.1356 59.6182C90.1017 59.4937 90.0479 59.3777 89.9744 59.2703C89.9122 59.1628 89.833 59.061 89.7368 58.9648C89.652 58.8799 89.652 58.7951 89.7368 58.7102L89.9914 58.4557C90.0762 58.3708 90.1611 58.3708 90.2459 58.4557L91.8412 60.0509C91.9204 60.1301 91.9458 60.2065 91.9175 60.28L89.7029 66.8222L96.245 64.6075C96.3186 64.5792 96.3949 64.6047 96.4741 64.6839L98.0694 66.2791C98.1542 66.364 98.1542 66.4488 98.0694 66.5337L97.8148 66.7882C97.73 66.8731 97.6451 66.8731 97.5602 66.7882C97.4697 66.6977 97.3679 66.6185 97.2548 66.5506C97.1473 66.4771 97.0313 66.4233 96.9069 66.3894L92.4945 70.8018ZM100.166 77.4723C100.189 77.5515 100.183 77.6081 100.149 77.642C100.127 77.6646 100.09 77.6844 100.039 77.7014L97.5614 78.5839C97.4878 78.6122 97.4284 78.6037 97.3832 78.5584C97.3549 78.5301 97.3408 78.4934 97.3408 78.4481L97.3408 78.3633C97.3408 78.3067 97.2983 78.236 97.2135 78.1511L92.572 73.5097C92.4872 73.4248 92.4872 73.34 92.572 73.2551L92.8266 73.0006C92.9114 72.9157 92.9963 72.9157 93.0811 73.0006L93.0981 73.0175C93.5054 73.4248 93.9778 73.3598 94.5152 72.8224L98.2402 69.0973C98.7776 68.5599 98.8398 68.0848 98.4269 67.6718L98.4184 67.6633C98.3335 67.5785 98.3335 67.4936 98.4184 67.4088L98.6729 67.1542C98.7635 67.0637 98.8511 67.0609 98.936 67.1457L103.187 71.3968C103.261 71.4704 103.329 71.51 103.391 71.5156L103.484 71.5241C103.518 71.5241 103.549 71.5383 103.577 71.5666C103.623 71.6118 103.637 71.6712 103.62 71.7447L103.136 73.5691C103.131 73.6087 103.114 73.6426 103.085 73.6709C103.046 73.7105 102.989 73.7218 102.916 73.7048L102.389 73.5521C102.327 73.5351 102.285 73.5153 102.262 73.4927C102.223 73.4531 102.214 73.3937 102.237 73.3145L102.254 73.2466C102.373 72.7771 102.387 72.384 102.296 72.0672C102.217 71.7504 102.013 71.428 101.685 71.0999L100.311 69.7252L98.3166 71.7193L99.0633 72.466C99.3178 72.7206 99.5639 72.8705 99.8015 72.9157C100.039 72.961 100.251 72.8903 100.438 72.7036L100.497 72.6442C100.582 72.5593 100.667 72.5593 100.752 72.6442L101.006 72.8987C101.091 72.9836 101.091 73.0685 101.006 73.1533L99.0802 75.0795C98.9954 75.1643 98.9105 75.1643 98.8257 75.0795L98.5711 74.8249C98.4863 74.7401 98.4863 74.6552 98.5711 74.5703L98.622 74.5194C98.8144 74.3271 98.8851 74.115 98.8342 73.883C98.7946 73.6511 98.6447 73.405 98.3844 73.1448L97.6377 72.3981L95.9577 74.0782C95.4203 74.6156 95.3467 75.0795 95.737 75.4698L96.2886 76.0213C96.7072 76.4399 97.0862 76.7397 97.4256 76.9208C97.7707 77.1074 98.1242 77.1951 98.4863 77.1838C98.854 77.1782 99.2754 77.0961 99.7506 76.9377L99.8269 76.9123C99.9005 76.8953 99.9599 76.9095 100.005 76.9547C100.033 76.983 100.05 77.0113 100.056 77.0396L100.166 77.4723ZM112.051 80.2607C112.136 80.3455 112.136 80.4304 112.051 80.5152L111.796 80.7698C111.712 80.8546 111.627 80.8546 111.542 80.7698C111.332 80.5605 111.101 80.4813 110.846 80.5322C110.591 80.5831 110.348 80.7245 110.116 80.9564L105.195 85.8779C105.11 85.9628 105.025 85.9628 104.94 85.8779L104.355 85.2924C104.298 85.2359 104.273 85.1595 104.278 85.0633L104.881 76.4338L101.504 79.8109C101.277 80.0372 101.136 80.2805 101.079 80.5407C101.034 80.8009 101.116 81.0356 101.326 81.2449C101.41 81.3298 101.41 81.4147 101.326 81.4995L101.071 81.7541C100.986 81.8389 100.901 81.8389 100.816 81.7541L98.7205 79.6582C98.6357 79.5733 98.6357 79.4885 98.7205 79.4036L98.9751 79.1491C99.06 79.0642 99.1448 79.0642 99.2297 79.1491C99.439 79.3584 99.6709 79.4376 99.9255 79.3867C100.186 79.3301 100.429 79.1887 100.655 78.9624L104.983 74.6349C104.971 74.4765 104.94 74.3379 104.889 74.2191C104.844 74.106 104.768 73.9957 104.66 73.8882C104.575 73.8034 104.575 73.7185 104.66 73.6336L104.915 73.3791C105 73.2942 105.085 73.2942 105.169 73.3791L106.637 74.847C106.7 74.9093 106.725 74.9856 106.714 75.0761L106.179 83.1966L109.268 80.1079C109.5 79.876 109.638 79.6299 109.684 79.3697C109.734 79.1151 109.655 78.8832 109.446 78.6739C109.361 78.5891 109.361 78.5042 109.446 78.4193L109.7 78.1648C109.785 78.0799 109.87 78.0799 109.955 78.1648L112.051 80.2607ZM117.666 85.8757C117.694 85.904 117.728 85.9323 117.768 85.9606C117.819 85.9889 117.884 86.003 117.963 86.003C118.008 86.003 118.045 86.0171 118.073 86.0454C118.119 86.0907 118.127 86.1501 118.099 86.2236L117.53 88.1328C117.513 88.1837 117.496 88.2177 117.479 88.2346C117.434 88.2799 117.377 88.2912 117.31 88.2686L116.758 88.1074C116.707 88.0904 116.67 88.0706 116.648 88.048C116.614 88.014 116.608 87.9574 116.631 87.8782L116.656 87.8019C116.798 87.3776 116.795 86.9732 116.648 86.5885C116.501 86.2038 116.255 85.839 115.91 85.4939L115.494 85.0781L111.132 89.4395C110.906 89.6658 110.756 89.9006 110.683 90.1438C110.615 90.3814 110.688 90.6077 110.903 90.8226L110.963 90.882C111.047 90.9669 111.047 91.0517 110.963 91.1366L110.708 91.3912C110.623 91.476 110.538 91.476 110.453 91.3912L107.84 88.7777C107.755 88.6928 107.755 88.608 107.84 88.5231L108.095 88.2686C108.179 88.1837 108.264 88.1837 108.349 88.2686L108.4 88.3195C108.615 88.5344 108.841 88.608 109.079 88.5401C109.322 88.4666 109.557 88.3167 109.783 88.0904L114.145 83.7289L113.729 83.3132C113.384 82.9681 113.019 82.722 112.634 82.5749C112.25 82.4279 111.845 82.425 111.421 82.5665L111.344 82.5919C111.265 82.6145 111.209 82.6089 111.175 82.5749C111.152 82.5523 111.132 82.5156 111.115 82.4646L110.954 81.9131C110.932 81.8452 110.943 81.7886 110.988 81.7434C111.005 81.7264 111.039 81.7094 111.09 81.6925L112.999 81.124C113.078 81.1013 113.138 81.1098 113.177 81.1494C113.206 81.1777 113.22 81.2145 113.22 81.2597C113.22 81.3389 113.231 81.4012 113.254 81.4464C113.288 81.4917 113.319 81.5284 113.347 81.5567L117.666 85.8757ZM120.393 97.6994C120.416 97.7786 120.41 97.8352 120.377 97.8691C120.354 97.8918 120.317 97.9116 120.266 97.9285L117.788 98.811C117.715 98.8393 117.656 98.8308 117.61 98.7855C117.582 98.7573 117.568 98.7205 117.568 98.6752L117.568 98.5904C117.568 98.5338 117.525 98.4631 117.441 98.3783L112.799 93.7368C112.714 93.652 112.714 93.5671 112.799 93.4822L113.054 93.2277C113.139 93.1428 113.223 93.1428 113.308 93.2277L113.325 93.2447C113.733 93.652 114.205 93.5869 114.742 93.0495L118.467 89.3245C119.005 88.7871 119.067 88.3119 118.654 87.8989L118.646 87.8904C118.561 87.8056 118.561 87.7207 118.646 87.6359L118.9 87.3813C118.991 87.2908 119.078 87.288 119.163 87.3728L123.414 91.624C123.488 91.6975 123.556 91.7371 123.618 91.7428L123.711 91.7512C123.745 91.7512 123.776 91.7654 123.805 91.7937C123.85 91.8389 123.864 91.8983 123.847 91.9719L123.363 93.7962C123.358 93.8358 123.341 93.8697 123.312 93.898C123.273 93.9376 123.216 93.9489 123.143 93.932L122.617 93.7792C122.554 93.7623 122.512 93.7425 122.489 93.7198C122.45 93.6802 122.441 93.6208 122.464 93.5416L122.481 93.4738C122.6 93.0042 122.614 92.6111 122.523 92.2943C122.444 91.9775 122.24 91.6551 121.912 91.327L120.538 89.9524L118.544 91.9464L119.29 92.6931C119.545 92.9477 119.791 93.0976 120.029 93.1428C120.266 93.1881 120.478 93.1174 120.665 92.9307L120.724 92.8713C120.809 92.7865 120.894 92.7865 120.979 92.8713L121.234 93.1259C121.318 93.2107 121.318 93.2956 121.234 93.3804L119.307 95.3066C119.223 95.3914 119.138 95.3914 119.053 95.3066L118.798 95.052C118.713 94.9672 118.713 94.8823 118.798 94.7975L118.849 94.7466C119.041 94.5542 119.112 94.3421 119.061 94.1102C119.022 93.8782 118.872 93.6322 118.612 93.3719L117.865 92.6252L116.185 94.3053C115.647 94.8427 115.574 95.3066 115.964 95.6969L116.516 96.2484C116.934 96.6671 117.313 96.9669 117.653 97.1479C117.998 97.3346 118.351 97.4222 118.713 97.4109C119.081 97.4053 119.503 97.3233 119.978 97.1649L120.054 97.1394C120.128 97.1224 120.187 97.1366 120.232 97.1818C120.261 97.2101 120.278 97.2384 120.283 97.2667L120.393 97.6994Z" fill="white"/>
</svg>
